<svg xmlns="http://www.w3.org/2000/svg" viewBox="0 0 21.99 17.87"><defs><style>.cls-1{fill:#fed24b;}</style></defs><title>newAsset 1</title><g id="Layer_2" data-name="Layer 2"><g id="icons"><g id="_Group_" data-name="&lt;Group&gt;"><path id="_Path_" data-name="&lt;Path&gt;" class="cls-1" d="M22,2.12a9,9,0,0,1-2.59.71,4.52,4.52,0,0,0,2-2.5,9,9,0,0,1-2.87,1.09,4.52,4.52,0,0,0-7.69,4.12A12.81,12.81,0,0,1,1.53.83a4.52,4.52,0,0,0,1.4,6,4.49,4.49,0,0,1-2-.56v.06A4.51,4.51,0,0,0,4.5,10.77a4.52,4.52,0,0,1-2,.08A4.52,4.52,0,0,0,6.68,14a9.05,9.05,0,0,1-5.6,1.93A9.18,9.18,0,0,1,0,15.85a12.77,12.77,0,0,0,6.92,2A12.75,12.75,0,0,0,19.75,5q0-.29,0-.58A9.17,9.17,0,0,0,22,2.12Z"/></g></g></g></svg>