<?xml version="1.0" encoding="UTF-8" standalone="no"?>
<svg width="56px" height="52px" viewBox="0 0 56 52" version="1.1" xmlns="http://www.w3.org/2000/svg" xmlns:xlink="http://www.w3.org/1999/xlink">
    <!-- Generator: Sketch 46.2 (44496) - http://www.bohemiancoding.com/sketch -->
    <title>Group 6 Copy</title>
    <desc>Created with Sketch.</desc>
    <defs></defs>
    <g id="Page-1" stroke="none" stroke-width="1" fill="none" fill-rule="evenodd">
        <g id="AcmeGifts_CreateProfile" transform="translate(-626.000000, -202.000000)">
            <g id="Group-6-Copy" transform="translate(626.000000, 202.000000)">
                <polygon id="Shape" fill="#5CB095" fill-rule="nonzero" points="2.80578319 29.693742 8.84448918 23.6534481 14.884783 29.693742 17.6905662 26.8863709 11.6502724 20.8476649 17.6905662 14.8073711 14.884783 12 8.84448918 18.0402939 2.80578319 12 0 14.8073711 6.03711811 20.8476649 0 26.8863709"></polygon>
                <path d="M38.6545405,3.11482441 C36.2520787,0.712362623 33.4415319,1.03946581 31.3947551,1.27764775 C29.4464269,1.50630241 28.390487,1.57775699 27.3901229,0.580568619 C26.6152376,-0.19272873 25.3544613,-0.194316609 24.5811639,0.580568619 C24.2064243,0.955308196 24,1.45390238 24,1.98425415 C24,2.51460593 24.2064243,3.01161223 24.5811639,3.38793969 C26.4929709,5.29974669 28.6715417,5.43471645 30.1387424,5.37755279 C30.7596033,5.35214671 31.3375915,5.28386789 31.8473008,5.22352847 C33.795629,4.99487381 34.8468053,4.92500711 35.8471694,5.92378336 C36.8475336,6.92414748 36.7744911,7.98326315 36.5474243,9.92365198 C36.485497,10.4651189 36.420394,11.030404 36.3949879,11.6353862 C36.3346485,13.1073505 36.4775576,15.2843334 38.3830131,17.1913768 C40.2916443,19.100008 42.4591,19.2381535 43.9374158,19.179402 C44.5582767,19.1539959 45.134677,19.0857171 45.6459742,19.0253777 C46.3398776,18.9443958 46.9194537,18.8824685 47.4243994,18.8824685 C48.3326665,18.8824685 48.9995759,19.0809534 49.6410792,19.7240447 C50.6366797,20.7196451 50.5636373,21.7771729 50.3365705,23.714386 C50.2762311,24.2256832 50.2079522,24.8052593 50.1825462,25.4261202 C50.1206189,26.8964967 50.2587644,29.0703038 52.1658077,30.978935 C52.9168748,31.7300021 54.2221118,31.7300021 54.9731788,30.978935 C55.3479184,30.6041954 55.5543427,30.1056013 55.5543427,29.5752495 C55.5543427,29.0448977 55.3479184,28.5478914 54.9731788,28.171564 C53.9775783,27.1759635 54.0506208,26.1184357 54.2776876,24.1796347 C54.5206331,22.1280943 54.8525,19.3207233 52.4484503,16.9166736 C50.0459885,14.5142118 47.2354417,14.841315 45.187077,15.0826727 C43.2371609,15.3081516 42.1843968,15.3796062 41.1887963,14.3855936 C40.1884322,13.3836416 40.2614746,12.3245259 40.4885414,10.3857249 C40.7298991,8.3294209 41.0585902,5.51887407 38.6545405,3.11482441 Z" id="Shape" fill="#FC8579" fill-rule="nonzero"></path>
                <g id="Group" transform="translate(26.000000, 38.000000)">
                    <circle id="Oval" cx="6.82007411" cy="6.82007411" r="2.82007411"></circle>
                    <path d="M13.579546,6.78977302 C13.579546,3.04555301 10.533993,0 6.78977302,0 C3.04555301,0 0,3.04555301 0,6.78977302 C0,10.533993 3.04555301,13.579546 6.78977302,13.579546 C10.533993,13.579546 13.579546,10.533993 13.579546,6.78977302 Z M3.96969891,6.78977302 C3.96969891,5.23523893 5.23523893,3.96969891 6.78977302,3.96969891 C8.34430712,3.96969891 9.60984713,5.23523893 9.60984713,6.78977302 C9.60984713,8.34430712 8.34430712,9.60984713 6.78977302,9.60984713 C5.23523893,9.60984713 3.96969891,8.34430712 3.96969891,6.78977302 Z" id="Shape" fill="#FED24B" fill-rule="nonzero"></path>
                </g>
            </g>
        </g>
    </g>
</svg>