<?xml version="1.0" encoding="UTF-8" standalone="no"?>
<svg width="51px" height="50px" viewBox="0 0 51 50" version="1.1" xmlns="http://www.w3.org/2000/svg" xmlns:xlink="http://www.w3.org/1999/xlink">
    <!-- Generator: Sketch 46.2 (44496) - http://www.bohemiancoding.com/sketch -->
    <title>Group 5 Copy</title>
    <desc>Created with Sketch.</desc>
    <defs></defs>
    <g id="Page-1" stroke="none" stroke-width="1" fill="none" fill-rule="evenodd">
        <g id="AcmeGifts_CreateProfile" transform="translate(-350.000000, -202.000000)">
            <g id="Group-5-Copy" transform="translate(350.000000, 202.000000)">
                <path d="M11.2677369,34.0352675 C12.6888891,33.6700552 14.8341144,33.1174731 15.907521,30.6975446 C16.9841033,28.2728525 15.9503937,26.3118213 15.2691934,25.0145237 C14.6594476,23.8601352 14.4720778,23.401238 14.7436052,22.7899044 C15.1866236,21.7895403 14.734078,20.6145094 13.7337138,20.171491 C13.4748895,20.0571637 13.2017742,20 12.927071,20 C12.6857133,20 12.4427677,20.0444606 12.2125252,20.1333819 C11.7186947,20.3239274 11.3280763,20.6954912 11.1153004,21.1797945 C10.1943303,23.2599167 10.8024882,24.9875297 11.5202097,26.4039183 L11.7552159,26.8628155 C12.3633738,28.0172039 12.5507436,28.4761011 12.2792161,29.0874348 C12.0061009,29.6987684 11.5392643,29.8670836 10.2769,30.1910111 L9.77989371,30.3228051 C8.24758993,30.7420053 6.55808607,31.4517874 5.63711592,33.5287339 C4.71773366,35.6056804 5.32589153,37.3317055 6.04361309,38.748094 L6.28020715,39.210167 C6.86295895,40.3137433 7.08843785,40.7885193 6.80579528,41.425259 C6.52315272,42.0604108 6.0197949,42.2128472 4.80824279,42.5224838 L4.30806073,42.6542778 C2.77893271,43.0718901 1.08942885,43.7784965 0.17004658,45.855443 C-0.272971819,46.8558071 0.179573857,48.030838 1.17993798,48.4738564 C2.16918695,48.9121111 3.3696239,48.4341594 3.79835139,47.463965 C4.08099395,46.8288131 4.58276389,46.6779646 5.794316,46.3683281 C7.21546821,46.0047036 9.36069351,45.4552973 10.435688,43.0353689 C11.5106824,40.6122646 10.475385,38.6528213 9.79259675,37.3571115 C9.20984495,36.2503595 8.98436605,35.7771714 9.26700861,35.1404317 C9.53853602,34.5275101 10.0053726,34.3591949 11.2677369,34.0352675 Z" id="Shape" fill="#5CB095" fill-rule="nonzero"></path>
                <g id="Group-4" transform="translate(27.000000, 36.000000)">
                    <circle id="Oval" cx="7.60594312" cy="7.17381851" r="2.82007411"></circle>
                    <path d="M0.816170097,7.17381851 C0.816170097,10.9180385 3.8617231,13.9635915 7.60594312,13.9635915 C11.3485753,13.9635915 14.3941283,10.9180385 14.3941283,7.17381851 C14.3941283,3.4295985 11.3485753,0.384045492 7.60594312,0.384045492 C3.8617231,0.384045492 0.816170097,3.4295985 0.816170097,7.17381851 Z M10.4244293,7.17381851 C10.4244293,8.72835261 9.15888933,9.99389262 7.60594312,9.99389262 C6.05140902,9.99389262 4.78586901,8.72835261 4.78586901,7.17381851 C4.78586901,5.61928442 6.05140902,4.35374441 7.60594312,4.35374441 C9.16047721,4.35374441 10.4244293,5.61928442 10.4244293,7.17381851 Z" id="Shape" fill="#FC8579" fill-rule="nonzero"></path>
                </g>
                <g id="Group-2" transform="translate(29.000000, 0.000000)">
                    <path d="M17.0948487,11.1340801 C17.0948487,7.72172695 14.3176473,4.94452559 10.9052941,4.94452559 C7.49294092,4.94452559 4.71573956,7.72172695 4.71573956,11.1340801 C4.71573956,14.5464333 7.49294092,17.3236347 10.9052941,17.3236347 C14.3176473,17.3236347 17.0948487,14.5464333 17.0948487,11.1340801 Z" id="Shape"></path>
                    <path d="M21.0645476,11.1340801 C21.0645476,5.53204103 16.5073332,0.974826679 10.9052941,0.974826679 C5.303255,0.974826679 0.746040647,5.53204103 0.746040647,11.1340801 C0.746040647,16.7361192 5.303255,21.2933336 10.9052941,21.2933336 C16.5073332,21.2933336 21.0645476,16.7361192 21.0645476,11.1340801 Z M4.71415168,11.1340801 C4.71415168,7.72172695 7.49135304,4.94452559 10.9037062,4.94452559 C14.3160594,4.94452559 17.0932608,7.72172695 17.0932608,11.1340801 C17.0932608,14.5464333 14.3160594,17.3236347 10.9037062,17.3236347 C7.49135304,17.3236347 4.71415168,14.5464333 4.71415168,11.1340801 Z" id="Shape" fill="#FED24B" fill-rule="nonzero"></path>
                </g>
            </g>
        </g>
    </g>
</svg>